<?xml version="1.0" standalone="no"?>
<!DOCTYPE svg PUBLIC "-//W3C//DTD SVG 20010904//EN"
 "http://www.w3.org/TR/2001/REC-SVG-20010904/DTD/svg10.dtd">
<svg version="1.0" xmlns="http://www.w3.org/2000/svg"
 width="2048.000000pt" height="1491.000000pt" viewBox="0 0 2048.000000 1491.000000"
 preserveAspectRatio="xMidYMid meet">

<g transform="translate(0.000000,1491.000000) scale(0.100000,-0.100000)"
fill="#000000" stroke="none">
<path d="M7360 10179 c0 -5 5 -7 10 -4 6 3 10 8 10 11 0 2 -4 4 -10 4 -5 0
-10 -5 -10 -11z"/>
<path d="M11385 10180 c4 -6 11 -8 16 -5 14 9 11 15 -7 15 -8 0 -12 -5 -9 -10z"/>
<path d="M11780 10145 c0 -34 1 -35 40 -35 27 0 40 4 40 13 0 23 -12 28 -25
10 -19 -25 -47 -10 -39 22 4 15 2 25 -5 25 -6 0 -11 -16 -11 -35z"/>
<path d="M7645 10159 c-11 -17 0 -20 21 -4 17 13 17 14 2 15 -9 0 -20 -5 -23
-11z"/>
<path d="M12160 10129 c0 -12 5 -19 12 -17 18 6 20 25 3 31 -10 5 -15 0 -15
-14z"/>
<path d="M11475 10130 c-3 -6 1 -7 9 -4 18 7 21 14 7 14 -6 0 -13 -4 -16 -10z"/>
<path d="M16812 10120 c-11 -19 -10 -20 30 -19 24 1 35 3 26 6 -10 2 -18 11
-18 19 0 21 -23 17 -38 -6z"/>
<path d="M3995 10120 c3 -5 14 -10 23 -10 15 0 15 2 2 10 -20 13 -33 13 -25 0z"/>
<path d="M11310 10120 c0 -5 5 -10 10 -10 6 0 10 5 10 10 0 6 -4 10 -10 10 -5
0 -10 -4 -10 -10z"/>
<path d="M11394 10119 c-9 -15 1 -21 26 -17 21 3 21 3 1 15 -14 9 -22 9 -27 2z"/>
<path d="M7415 10100 c3 -5 10 -10 16 -10 5 0 9 5 9 10 0 6 -7 10 -16 10 -8 0
-12 -4 -9 -10z"/>
<path d="M11693 10103 c9 -2 23 -2 30 0 6 3 -1 5 -18 5 -16 0 -22 -2 -12 -5z"/>
<path d="M12140 10096 c0 -9 5 -16 10 -16 6 0 10 4 10 9 0 6 -4 13 -10 16 -5
3 -10 -1 -10 -9z"/>
<path d="M12240 10099 c0 -5 5 -7 10 -4 6 3 10 8 10 11 0 2 -4 4 -10 4 -5 0
-10 -5 -10 -11z"/>
<path d="M4000 10084 c0 -11 5 -14 16 -10 9 3 20 6 25 6 6 0 7 5 4 10 -10 16
-45 12 -45 -6z"/>
<path d="M16718 10065 c2 -19 6 -35 8 -35 2 0 4 16 4 35 0 19 -4 35 -8 35 -4
0 -6 -16 -4 -35z"/>
<path d="M11665 10080 c-3 -5 -1 -10 4 -10 6 0 11 5 11 10 0 6 -2 10 -4 10 -3
0 -8 -4 -11 -10z"/>
<path d="M11360 10070 c0 -5 6 -10 14 -10 8 0 18 5 21 10 3 6 -3 10 -14 10
-12 0 -21 -4 -21 -10z"/>
<path d="M11445 10072 c-3 -3 -5 -9 -5 -14 0 -11 47 -10 54 1 6 9 -40 22 -49
13z"/>
<path d="M11734 10066 c-10 -8 -16 -18 -12 -21 4 -4 15 0 24 9 21 22 13 30
-12 12z"/>
<path d="M12000 10070 c0 -5 5 -10 11 -10 5 0 7 5 4 10 -3 6 -8 10 -11 10 -2
0 -4 -4 -4 -10z"/>
<path d="M16843 10073 c-51 -5 -58 -23 -9 -23 19 0 41 -3 50 -6 12 -4 16 0 16
15 0 12 -3 20 -7 19 -5 -1 -27 -3 -50 -5z"/>
<path d="M7768 10063 c6 -2 18 -2 25 0 6 3 1 5 -13 5 -14 0 -19 -2 -12 -5z"/>
<path d="M7850 10060 c8 -5 20 -10 25 -10 6 0 3 5 -5 10 -8 5 -19 10 -25 10
-5 0 -3 -5 5 -10z"/>
<path d="M8225 10060 c3 -5 8 -10 11 -10 2 0 4 5 4 10 0 6 -5 10 -11 10 -5 0
-7 -4 -4 -10z"/>
<path d="M11608 10058 c9 -9 15 -9 24 0 9 9 7 12 -12 12 -19 0 -21 -3 -12 -12z"/>
<path d="M11560 10039 c0 -5 5 -7 10 -4 6 3 10 8 10 11 0 2 -4 4 -10 4 -5 0
-10 -5 -10 -11z"/>
<path d="M11410 10036 c0 -2 7 -6 15 -10 8 -3 15 -1 15 4 0 6 -7 10 -15 10 -8
0 -15 -2 -15 -4z"/>
<path d="M11615 10030 c3 -5 16 -10 28 -9 21 0 21 1 2 9 -28 12 -37 12 -30 0z"/>
<path d="M7955 10020 c4 -6 -14 -11 -44 -12 -28 -1 -64 -3 -81 -5 -37 -5 -41
-5 -274 -4 -104 0 -193 -2 -197 -5 -5 -3 -6 3 -2 13 6 17 5 17 -14 0 -17 -15
-31 -17 -78 -12 -49 5 -57 4 -52 -9 7 -18 -9 -31 -16 -14 -4 8 -8 4 -12 -9 -4
-13 -12 -20 -18 -16 -5 3 -7 1 -3 -5 3 -6 2 -13 -4 -17 -5 -3 -10 -17 -10 -31
0 -24 -16 -51 -86 -149 -31 -43 -118 -150 -134 -165 -3 -3 -35 -39 -70 -80
-36 -41 -74 -84 -85 -95 -11 -12 -56 -61 -99 -109 -51 -55 -85 -85 -94 -81
-10 3 -12 0 -8 -10 3 -8 1 -15 -5 -15 -6 0 -8 -4 -5 -8 3 -5 -3 -15 -12 -24
-9 -8 -46 -46 -82 -83 -36 -37 -75 -71 -87 -76 -15 -6 -21 -14 -17 -24 5 -11
0 -18 -15 -22 -11 -3 -21 -12 -21 -19 0 -8 -7 -14 -16 -14 -8 0 -12 -5 -8 -11
3 -6 -8 -24 -25 -39 -17 -16 -31 -34 -31 -41 0 -6 -7 -9 -15 -5 -10 3 -15 -1
-15 -11 0 -9 -8 -22 -17 -29 -10 -7 -18 -18 -18 -26 0 -7 -8 -12 -18 -12 -9 1
-15 -1 -12 -5 6 -11 -33 -41 -54 -41 -17 0 -19 -6 -16 -45 1 -25 -2 -45 -7
-45 -13 0 -39 -27 -36 -37 2 -4 -7 -9 -20 -11 -19 -3 -21 -6 -11 -18 9 -11 8
-20 -6 -40 -26 -40 -71 -84 -78 -77 -4 3 -7 -3 -7 -14 0 -27 -23 -70 -46 -88
-11 -8 -14 -14 -6 -15 16 0 15 -37 -1 -47 -8 -4 -17 -26 -20 -47 -4 -22 -10
-42 -15 -45 -5 -3 -12 -18 -16 -33 -3 -16 -11 -28 -17 -28 -26 0 -37 -28 -36
-94 0 -38 4 -61 7 -51 4 13 9 15 14 7 4 -6 1 -22 -6 -34 -7 -13 -11 -27 -10
-32 2 -4 -5 -14 -15 -22 -17 -13 -17 -13 0 -14 10 0 16 -4 13 -9 -3 -5 -7 -30
-8 -55 -1 -30 -7 -50 -16 -55 -10 -6 -17 -28 -19 -65 -3 -52 -2 -56 19 -57
l23 0 -22 -9 c-23 -9 -43 -62 -43 -112 0 -16 -6 -28 -12 -28 -10 0 -10 -2 -1
-8 16 -10 19 -92 5 -119 -17 -31 -15 -43 9 -43 11 0 18 -4 14 -10 -3 -5 -12
-7 -20 -3 -12 4 -15 -9 -15 -75 l0 -79 28 3 c15 2 19 1 10 -2 -10 -3 -15 -11
-11 -20 3 -8 -3 -21 -12 -28 -17 -12 -16 -14 8 -20 30 -7 35 -27 12 -46 -20
-17 -20 -70 1 -70 8 0 12 -5 9 -10 -4 -6 -9 -8 -13 -6 -4 2 -7 -52 -7 -119 0
-74 -4 -128 -11 -135 -13 -13 2 -172 17 -181 7 -4 7 -17 1 -40 -6 -19 -11 -28
-11 -21 -1 7 -6 10 -12 7 -6 -4 -9 -38 -8 -83 1 -43 -1 -86 -5 -97 -5 -11 -4
-16 1 -10 13 16 33 16 33 1 0 -7 -7 -19 -15 -26 -18 -15 -20 -66 -2 -74 10 -5
10 -7 0 -12 -18 -8 -16 -24 3 -38 12 -9 13 -19 6 -54 -6 -23 -8 -51 -5 -61 3
-10 0 -22 -6 -25 -13 -8 -15 -46 -2 -46 4 0 8 -13 7 -30 -1 -16 -4 -30 -8 -30
-16 0 -7 -17 16 -29 31 -17 24 -50 -10 -46 -13 1 -21 -2 -18 -6 3 -5 12 -9 20
-9 19 0 18 -27 -3 -38 -15 -9 -15 -13 -2 -43 7 -19 12 -45 11 -59 -2 -20 -1
-22 7 -10 6 8 11 24 12 35 0 11 3 15 5 8 3 -6 0 -31 -6 -54 -9 -33 -14 -39
-22 -28 -7 10 -8 1 -4 -28 4 -26 2 -43 -4 -43 -5 0 -10 -8 -10 -19 0 -21 37
-36 43 -17 2 6 4 -3 4 -21 0 -35 -21 -52 -32 -25 -6 15 -8 14 -16 -6 -5 -13
-6 -29 -2 -35 4 -7 6 -20 4 -31 -1 -10 8 -29 20 -42 21 -22 22 -29 12 -65 -9
-33 -8 -39 3 -35 8 3 14 -1 14 -9 0 -9 -10 -15 -25 -15 -14 0 -25 -4 -25 -10
0 -5 7 -10 15 -10 20 0 19 -17 -1 -28 -13 -7 -14 -14 -6 -28 6 -11 7 -27 1
-41 -5 -13 -6 -24 -4 -24 3 -1 11 -2 18 -3 7 -1 11 -12 9 -26 -1 -15 5 -30 14
-37 16 -11 14 -13 -14 -19 -18 -4 -32 -12 -32 -19 0 -8 -29 -11 -107 -9 -166
3 -170 3 -154 13 9 6 3 10 -20 14 -19 3 -38 1 -44 -5 -7 -6 -7 -9 0 -8 6 2 19
1 30 0 17 -2 16 -3 -5 -9 -37 -11 -73 -2 -60 14 9 11 7 12 -9 8 -12 -3 -18 -9
-15 -14 3 -5 -5 -9 -18 -9 -19 0 -20 2 -8 10 11 8 9 9 -11 5 -14 -4 -45 0 -68
9 -24 8 -50 12 -57 9 -8 -3 -14 1 -14 11 0 9 -5 16 -11 16 -5 0 -7 -4 -4 -10
3 -5 1 -10 -4 -10 -6 0 -11 5 -11 11 0 8 -14 10 -42 6 -40 -5 -42 -5 -23 10
20 16 16 16 -32 -4 -12 -5 -14 -3 -8 7 6 10 4 12 -8 7 -22 -8 -32 10 -15 30
12 15 11 15 -12 0 -24 -16 -27 -15 -41 1 -10 12 -13 25 -8 38 11 27 10 34 -1
34 -5 0 -10 -6 -10 -14 0 -8 -5 -18 -11 -22 -6 -3 -10 1 -9 12 4 33 0 45 -11
38 -8 -5 -8 -9 1 -14 7 -4 8 -10 3 -13 -6 -4 -19 1 -29 9 -10 9 -13 13 -6 9
15 -8 16 11 1 20 -6 4 -8 13 -5 21 3 8 2 14 -3 14 -5 0 -11 9 -14 21 -3 12
-10 18 -16 14 -6 -3 -12 2 -12 12 -1 10 -2 25 -3 33 -1 8 -8 26 -16 40 -8 15
-15 56 -16 100 -2 44 -7 76 -14 78 -8 3 -7 8 1 18 10 12 8 16 -9 21 -12 3 -22
10 -22 17 0 8 -2 8 -8 -1 -4 -6 -7 9 -8 33 0 24 3 41 8 38 4 -3 8 10 9 28 0
18 4 42 9 53 6 15 9 8 9 -27 1 -38 4 -46 16 -42 12 5 14 15 9 43 -4 20 -10 37
-14 39 -9 3 -3 127 7 152 5 15 6 78 1 114 -2 10 3 21 10 23 7 3 12 -5 12 -21
0 -30 12 -33 31 -10 11 14 10 19 -9 34 -25 21 -28 30 -8 30 9 0 12 11 10 35
-1 19 1 37 6 40 5 3 7 24 5 48 -2 23 -4 59 -4 80 -1 20 -5 37 -11 37 -5 0 -10
-18 -10 -40 0 -29 -4 -40 -15 -40 -11 0 -15 12 -16 43 -1 23 -1 48 0 55 1 8
-2 19 -8 26 -6 7 -6 17 -1 26 6 8 10 32 10 53 0 20 5 37 10 37 6 0 10 -21 10
-47 0 -83 17 -80 23 3 7 90 1 106 -24 73 -10 -13 -21 -21 -25 -17 -4 4 -1 14
5 22 8 9 8 16 2 20 -6 4 -10 64 -9 149 0 78 -3 150 -7 161 -4 10 -4 21 2 25 8
5 10 55 3 86 -1 6 -1 12 0 15 1 3 3 37 4 75 1 39 5 75 8 80 4 6 3 16 0 22 -4
7 -7 75 -6 152 1 83 -2 141 -8 141 -5 0 -6 6 -2 12 11 18 11 151 1 166 -6 7
-5 17 1 25 6 7 9 44 6 92 -9 149 -9 265 -1 265 5 0 5 5 2 10 -4 6 -10 8 -15 5
-5 -3 -5 9 0 26 5 18 7 35 5 40 -3 4 -1 10 5 14 6 4 7 12 3 18 -4 6 -6 41 -4
77 6 185 6 233 0 330 -4 58 -10 114 -14 125 -5 16 -5 17 4 5 5 -8 13 -11 17
-7 4 4 2 13 -4 19 -15 15 -15 61 0 76 8 8 8 15 2 21 -5 6 -7 46 -4 91 3 45 1
85 -3 89 -5 5 -3 18 4 29 11 17 11 30 1 67 -7 25 -12 61 -12 80 0 19 -4 35
-10 35 -14 0 -13 27 2 32 15 5 21 109 9 154 -6 22 -6 34 0 34 11 0 6 197 -6
240 -5 18 -4 21 3 11 7 -9 10 11 10 65 1 44 1 88 1 99 0 11 1 40 1 64 1 34 -4
47 -21 59 -17 12 -20 21 -15 50 3 19 11 39 18 44 10 6 10 8 -2 9 -8 0 -26 3
-40 5 -14 2 -33 5 -42 5 -9 0 -19 6 -22 14 -4 11 -25 12 -103 8 -127 -8 -131
-8 -248 -1 -55 3 -80 2 -55 -2 31 -5 -2 -8 -110 -9 -211 -4 -319 -1 -346 9
-16 7 -24 5 -28 -6 -3 -8 -14 -14 -23 -13 -10 1 -36 -2 -58 -6 -22 -5 -46 -9
-54 -9 -8 -1 -19 -16 -23 -34 -7 -24 -13 -32 -24 -28 -8 3 -12 2 -9 -3 3 -5 1
-12 -5 -16 -11 -7 -14 -48 -3 -58 3 -4 12 -2 20 5 18 14 -24 -81 -60 -138 -75
-120 -441 -514 -477 -514 -5 0 -10 -4 -10 -9 0 -12 -252 -266 -262 -264 -4 2
-8 -2 -8 -7 0 -6 -36 -46 -79 -90 -44 -44 -74 -81 -68 -84 7 -2 4 -5 -5 -5 -9
-1 -20 -10 -23 -21 -7 -23 -41 -44 -55 -35 -6 3 -10 -4 -10 -17 0 -13 -6 -30
-13 -38 -15 -19 -49 -23 -59 -7 -4 7 -8 -14 -8 -45 0 -48 -3 -58 -20 -63 -21
-7 -54 -58 -43 -68 3 -4 1 -13 -5 -20 -7 -8 -28 -47 -49 -87 -29 -59 -38 -70
-43 -55 -6 16 -9 13 -20 -19 -10 -30 -10 -40 0 -46 7 -4 8 -10 3 -13 -11 -7
-11 -37 1 -55 4 -7 2 -12 -7 -12 -17 0 -37 -42 -37 -80 0 -15 -6 -30 -12 -33
-10 -3 -10 -11 -1 -37 7 -19 9 -36 5 -39 -17 -12 -21 -41 -7 -49 12 -6 14 -23
9 -85 -4 -48 -11 -74 -17 -70 -7 4 -8 -1 -3 -13 9 -23 9 -163 0 -190 -4 -14
-3 -15 4 -6 7 11 11 8 14 -12 9 -46 1 -99 -16 -111 -20 -15 -21 -29 -1 -21 10
4 15 -1 15 -14 0 -11 -6 -18 -12 -16 -7 1 -10 1 -5 -1 4 -3 7 -13 7 -23 0 -10
5 -20 11 -22 8 -3 6 -20 -5 -57 -12 -40 -13 -58 -5 -68 9 -10 8 -13 -6 -13
-23 0 -16 -32 10 -45 21 -10 23 -45 3 -45 -6 0 -8 -8 -5 -19 3 -14 0 -17 -14
-14 -13 4 -19 0 -19 -10 0 -8 -6 -18 -12 -20 -8 -3 -6 -6 4 -6 18 -1 36 -60
24 -80 -4 -5 -2 -12 4 -16 5 -3 10 -1 10 6 0 7 3 9 7 5 13 -13 9 -40 -7 -53
-19 -13 -20 -67 -2 -69 26 -3 26 -5 8 -19 -15 -12 -17 -19 -9 -37 7 -17 6 -32
-4 -56 -13 -31 -12 -36 4 -56 10 -11 14 -18 9 -14 -10 8 -36 -9 -36 -23 0 -11
23 -7 32 5 5 7 4 -64 -1 -147 -1 -5 -5 -5 -11 -2 -5 3 -10 22 -10 41 0 28 -4
34 -20 34 -18 0 -20 -4 -15 -37 12 -73 15 -82 35 -88 11 -4 21 -16 21 -28 1
-12 2 -29 3 -37 1 -8 5 -21 9 -27 5 -8 4 -13 -2 -13 -6 0 -11 -5 -11 -11 0 -5
5 -7 10 -4 14 9 25 -24 12 -37 -7 -7 -12 -3 -17 11 -3 12 -11 21 -16 21 -6 0
-8 4 -4 9 3 5 0 13 -6 17 -12 7 -29 -12 -29 -33 0 -7 7 -13 16 -13 11 0 14 -6
9 -20 -5 -14 -2 -20 9 -20 19 0 21 -32 4 -61 -11 -17 -11 -23 0 -26 16 -6 16
-33 0 -33 -8 0 -6 -5 4 -10 13 -8 16 -22 14 -68 -2 -31 1 -72 6 -92 15 -62 16
-81 2 -87 -9 -3 -14 -18 -12 -42 1 -20 -2 -51 -6 -70 -5 -21 -5 -31 2 -27 6 3
7 -21 4 -66 -4 -52 -2 -69 7 -64 6 4 11 3 11 -3 0 -5 -5 -13 -10 -16 -8 -5 -7
-11 1 -21 14 -17 5 -44 -16 -44 -13 0 -14 -4 -3 -22 17 -32 18 -277 1 -294
-16 -15 -17 -49 -2 -76 8 -14 7 -28 -2 -50 -10 -25 -10 -31 2 -38 7 -5 10 -12
6 -17 -5 -4 -12 -1 -17 7 -11 18 -23 8 -14 -13 3 -9 11 -14 19 -11 19 8 25
-33 10 -62 -12 -23 -14 -24 -19 -7 -3 10 -3 -8 -1 -39 3 -31 0 -69 -5 -83 -9
-23 -7 -28 10 -32 25 -7 25 -8 -1 -34 -12 -12 -18 -27 -15 -36 4 -9 1 -22 -5
-29 -8 -10 -5 -19 15 -39 21 -21 23 -27 11 -31 -19 -8 -19 -24 0 -24 8 0 15
-7 15 -15 0 -8 -4 -15 -10 -15 -15 0 -12 -30 3 -30 7 -1 5 -6 -6 -14 -18 -14
-18 -15 0 -25 10 -6 13 -11 7 -11 -15 0 -11 -40 5 -50 8 -4 11 -14 9 -21 -3
-8 2 -20 11 -26 15 -12 14 -14 -1 -27 -23 -17 -25 -71 -2 -62 10 4 23 -3 34
-16 17 -20 17 -25 4 -45 -18 -29 -18 -33 5 -33 17 0 20 -7 19 -42 0 -23 5 -44
11 -46 6 -2 11 -15 11 -28 0 -18 5 -24 21 -24 16 0 19 -4 14 -20 -5 -14 -2
-20 9 -20 12 0 16 -11 16 -49 0 -27 -5 -51 -11 -53 -7 -2 -4 -10 7 -18 16 -13
17 -13 12 1 -5 13 1 16 31 16 32 0 39 -4 48 -27 8 -20 20 -30 44 -35 19 -4 42
-16 51 -26 20 -20 24 -34 8 -24 -5 3 -10 -1 -10 -9 0 -9 11 -16 27 -18 20 -2
29 -9 31 -24 2 -16 8 -20 23 -17 14 4 19 0 19 -16 0 -12 6 -23 13 -25 6 -2 32
-9 57 -16 25 -7 39 -15 33 -17 -18 -6 -16 -23 2 -23 8 0 15 7 15 15 0 17 16
20 25 5 3 -6 1 -10 -4 -10 -23 0 -10 -18 16 -23 18 -4 32 -1 39 9 10 13 12 13
18 -1 3 -8 14 -15 24 -15 10 0 22 -3 26 -7 4 -5 11 -8 14 -8 24 -2 62 -17 62
-25 0 -6 6 -10 14 -10 8 0 17 -7 20 -16 4 -10 13 -13 27 -9 12 4 42 1 67 -6
35 -10 47 -10 50 -1 2 7 13 10 28 6 13 -3 30 -2 37 4 16 12 109 13 124 0 8 -6
20 -4 37 8 21 13 34 14 64 7 25 -7 43 -6 54 1 12 7 27 7 54 -3 20 -7 64 -15
97 -17 33 -2 63 -8 67 -13 3 -6 18 -2 35 9 34 22 71 26 77 8 3 -7 11 -9 24 -4
24 10 74 13 74 5 0 -13 33 -20 44 -9 7 7 6 10 -2 10 -7 0 -12 4 -12 9 0 5 17
3 37 -4 26 -9 45 -10 63 -3 36 14 67 17 106 8 19 -5 34 -4 34 1 0 15 22 10 34
-7 7 -9 23 -16 37 -15 75 1 89 3 89 13 0 7 4 7 13 1 23 -19 64 -23 77 -9 12
15 70 19 70 4 0 -14 37 -9 50 7 16 20 30 19 30 -1 0 -13 3 -14 15 -4 9 7 22 9
32 4 28 -12 113 -13 113 0 0 6 5 3 11 -6 13 -23 35 -23 47 -2 10 19 32 11 32
-12 0 -17 12 -18 28 -2 9 9 18 10 30 2 9 -5 33 -7 52 -3 19 3 29 7 22 8 -7 0
-10 6 -7 12 4 6 14 7 24 3 13 -6 120 -13 284 -18 22 -1 37 -6 37 -13 0 -16 17
-17 22 -2 2 7 13 9 26 5 12 -4 20 -12 17 -17 -4 -5 1 -9 10 -9 11 0 15 5 12
14 -4 10 0 12 14 9 10 -3 19 -9 19 -14 0 -5 7 -9 15 -9 8 0 15 5 15 10 0 6 21
10 48 11 26 0 41 3 34 6 -22 9 -2 23 33 23 18 0 41 -7 50 -16 14 -15 19 -15
56 0 35 14 43 14 60 2 16 -11 29 -12 55 -4 20 5 93 7 167 3 73 -3 138 -5 145
-4 34 2 92 3 132 0 25 -1 58 1 74 5 18 4 31 2 36 -6 6 -9 13 -9 28 -1 44 24
132 10 132 -21 0 -10 5 -16 10 -13 6 4 8 11 5 16 -13 20 7 30 26 13 17 -15 21
-16 32 -2 10 12 28 13 97 8 47 -3 93 -3 102 2 9 4 47 4 85 -2 37 -5 70 -6 73
-2 7 11 56 11 118 1 34 -6 61 -5 73 2 13 7 19 6 19 -1 0 -7 6 -8 18 -1 16 9
96 0 108 -12 3 -3 20 -1 37 4 45 14 347 20 405 9 27 -5 75 -5 108 -1 41 6 61
5 66 -3 6 -8 8 -7 8 2 0 6 9 12 20 12 11 0 20 -3 20 -8 0 -9 65 -8 102 2 15 5
35 3 47 -4 12 -6 21 -7 21 -2 0 5 39 10 87 11 48 0 89 3 91 6 3 3 10 1 16 -4
6 -4 30 -11 52 -15 32 -4 43 -2 48 9 7 20 26 19 26 -1 0 -13 3 -14 15 -4 8 6
20 8 27 4 20 -12 58 -14 58 -2 0 7 17 8 48 4 28 -3 62 -1 80 5 18 6 40 8 50 3
9 -4 23 -6 30 -5 6 1 12 -3 12 -8 0 -6 12 -6 32 0 50 14 60 12 53 -11 -4 -12
-2 -20 5 -20 6 0 9 4 6 9 -7 11 41 24 54 16 6 -4 10 -1 10 5 0 6 10 8 24 4 13
-3 34 -1 46 6 13 7 26 8 33 2 20 -15 56 -21 60 -8 3 8 14 8 45 0 23 -6 39 -8
37 -3 -9 13 13 20 32 11 10 -5 52 -6 93 -2 61 6 77 4 88 -9 11 -13 14 -13 28
8 15 20 18 21 33 7 13 -12 20 -13 29 -4 7 7 12 8 12 4 0 -5 6 -4 13 2 9 8 24
8 49 2 21 -6 46 -7 59 -2 14 5 53 5 89 0 36 -4 74 -8 85 -8 11 0 46 0 78 0 39
-1 57 2 52 9 -9 15 20 14 53 -2 39 -19 230 -16 243 4 7 12 12 12 36 -1 30 -17
123 -16 123 1 0 5 9 4 20 -3 15 -10 24 -10 38 -2 13 9 23 8 42 -1 30 -15 150
-8 128 7 -8 6 0 7 25 3 29 -5 37 -3 37 10 0 22 26 18 45 -7 l16 -23 16 22 c9
13 26 23 39 23 12 0 26 5 29 10 3 6 17 10 30 10 33 0 56 10 48 22 -4 7 4 9 21
6 14 -3 26 -2 26 3 0 5 18 14 40 20 22 7 40 16 40 21 0 4 12 8 26 8 14 0 23 4
20 9 -7 10 22 24 34 16 4 -3 10 2 14 10 3 8 17 15 31 15 15 0 25 6 25 14 0 7
8 16 18 20 26 9 79 43 102 66 11 11 26 20 34 20 8 0 17 6 19 13 4 9 8 8 16 -3
10 -13 13 -13 25 2 7 10 18 18 25 18 6 0 11 5 11 11 0 6 -10 8 -22 5 l-23 -6
23 11 c12 7 22 18 22 25 0 7 9 15 19 19 11 3 41 27 68 52 37 36 49 43 51 30 2
-9 9 -17 16 -17 9 0 12 -9 8 -25 -5 -27 9 -33 27 -11 7 8 21 12 33 8 13 -3 26
1 34 13 8 11 19 15 30 11 16 -6 16 -8 -1 -25 -17 -20 -17 -58 0 -54 6 1 12 13
13 25 2 13 8 29 14 35 6 7 7 25 4 40 -4 18 -3 23 2 14 7 -10 11 -10 17 -2 4 7
-2 20 -13 29 -16 14 -17 19 -6 30 18 17 24 15 24 -8 0 -11 7 -23 15 -26 19 -8
46 -61 34 -68 -5 -2 -4 -3 3 -2 8 2 12 16 10 37 -2 31 -1 32 11 16 8 -9 21
-17 30 -17 10 0 14 -5 11 -15 -4 -8 -13 -15 -21 -15 -12 0 -14 -7 -10 -30 4
-16 2 -32 -2 -35 -5 -3 -7 -14 -4 -25 6 -22 43 -28 43 -6 0 28 30 26 45 -4 8
-16 24 -31 35 -35 19 -6 26 -39 22 -104 0 -8 7 -21 16 -28 16 -11 16 -12 0
-13 -21 0 -24 -20 -3 -20 12 0 11 -5 -3 -30 -9 -17 -25 -30 -36 -30 -18 0 -18
-1 -1 -20 10 -11 24 -20 32 -20 24 0 15 -39 -12 -46 -13 -3 -29 -12 -35 -20
-16 -18 -3 -54 19 -54 10 0 30 -9 45 -21 18 -14 34 -19 51 -15 15 4 25 2 25
-4 0 -7 23 -8 65 -5 60 6 68 4 85 -17 18 -21 21 -21 32 -7 7 9 19 14 26 12 15
-6 15 2 2 28 -12 21 -4 24 20 9 11 -7 12 -10 2 -10 -10 0 -10 -3 2 -15 19 -19
50 -20 43 -1 -7 18 39 30 77 20 16 -4 26 -2 26 5 0 6 -8 11 -17 11 -12 0 -14
3 -6 11 8 8 17 5 32 -10 23 -23 70 -28 88 -10 7 7 17 8 25 3 20 -13 70 -4 100
18 26 18 30 18 60 4 33 -17 118 -22 118 -7 0 5 35 12 78 16 42 4 84 11 93 15
17 10 190 15 229 8 14 -3 19 -3 13 -1 -36 12 -4 21 67 19 72 -2 82 0 102 21
12 13 29 23 39 23 9 0 19 3 21 8 4 10 128 69 161 76 15 4 27 10 27 15 0 4 11
6 25 3 14 -2 25 0 25 6 0 6 9 8 20 5 21 -5 28 11 10 22 -23 14 2 23 27 10 30
-16 56 -4 36 16 -13 13 -1 30 30 42 9 3 17 11 17 16 0 5 -8 12 -17 14 -11 3
-7 5 10 6 15 0 27 -4 27 -10 0 -8 4 -8 14 0 10 8 16 9 21 1 12 -19 27 -10 23
14 -3 13 0 23 6 23 67 -1 85 4 89 26 4 19 4 18 6 -5 0 -16 7 -28 14 -28 8 0 7
-3 -3 -10 -12 -8 -12 -11 2 -27 23 -26 8 -48 -26 -39 -36 9 -66 -9 -66 -39 0
-14 5 -25 11 -25 6 0 17 -7 25 -15 9 -8 23 -15 31 -15 13 0 11 4 -5 19 -27 23
-28 31 -2 31 11 0 20 -7 20 -16 0 -8 5 -12 10 -9 6 3 13 -1 16 -9 10 -25 36
-20 32 7 -2 14 -9 21 -19 19 -26 -4 -43 23 -24 38 12 10 18 10 30 0 8 -6 19
-9 25 -5 5 3 10 -1 10 -11 0 -9 8 -22 17 -29 15 -11 15 -14 2 -27 -8 -8 -20
-13 -27 -10 -6 2 -12 -1 -12 -7 0 -6 -7 -11 -15 -11 -8 0 -15 -4 -15 -10 0 -5
6 -10 13 -10 7 0 19 -9 27 -20 16 -22 50 -26 68 -8 19 19 33 -4 26 -40 -5 -25
-12 -32 -30 -32 -17 0 -24 -6 -24 -19 0 -22 9 -30 41 -36 26 -5 87 -56 88 -74
1 -7 7 -11 15 -8 7 3 18 1 24 -5 13 -13 35 -1 26 14 -12 19 19 27 52 13 18 -7
42 -11 54 -8 12 3 28 -2 40 -12 17 -16 20 -16 48 5 28 21 33 21 68 9 52 -19
126 -18 141 1 11 13 12 13 13 -2 0 -10 6 -18 14 -18 7 0 28 -3 45 -6 19 -4 31
-2 31 4 0 5 -9 8 -20 5 -11 -3 -20 -1 -20 5 0 11 33 22 72 22 15 0 30 5 33 10
9 15 51 12 64 -3 8 -10 24 -12 56 -7 25 4 45 3 45 -2 0 -14 28 -9 34 7 7 19
40 19 56 0 17 -20 47 -19 59 3 6 9 11 12 11 5 0 -8 15 -12 43 -11 48 2 114 -6
140 -17 10 -4 24 -2 33 5 8 7 36 14 62 14 34 1 46 5 44 15 -2 9 4 12 19 8 12
-3 31 -2 41 4 10 5 18 6 18 2 0 -5 18 -9 40 -9 22 -1 40 2 40 7 0 5 8 9 17 9
9 0 24 7 32 15 13 11 25 12 60 3 31 -8 45 -8 50 0 10 16 95 33 130 26 20 -4
31 -2 31 4 0 6 7 9 15 6 8 -4 15 -1 15 6 0 6 5 8 10 5 6 -3 17 1 26 9 9 9 32
16 55 16 21 0 39 4 39 9 0 5 27 17 60 27 33 11 60 22 60 27 0 4 14 7 30 7 18
0 33 6 36 15 4 8 12 15 19 15 8 0 20 6 27 14 8 7 30 19 51 27 20 7 37 17 37
21 0 4 8 8 19 8 10 0 24 7 31 15 6 8 22 17 33 21 12 4 45 22 73 40 28 19 57
34 64 34 7 0 10 3 7 6 -6 6 35 44 47 44 5 0 16 9 67 55 9 8 21 15 27 15 7 0
12 5 12 10 0 6 5 10 11 10 6 0 29 14 50 31 21 17 39 28 39 25 0 -3 16 10 36
29 20 19 40 35 46 35 5 0 22 12 38 27 15 14 39 27 53 29 13 1 59 16 102 33 42
17 90 31 106 31 41 0 77 19 58 31 -8 5 -16 3 -20 -3 -10 -16 -68 -16 -74 0 -3
7 0 10 5 7 6 -3 10 -1 10 5 0 8 10 10 28 6 21 -5 24 -4 12 5 -12 9 -11 10 8 6
12 -3 20 -2 17 3 -3 4 2 13 10 20 8 7 15 9 15 4 0 -5 5 -1 11 9 5 9 18 17 27
17 16 0 17 11 14 108 -1 59 -6 118 -9 132 -3 14 -5 30 -3 35 3 9 10 65 11 90
1 6 -2 34 -4 62 -3 29 -1 55 4 58 5 4 5 13 -1 24 -6 12 -5 22 2 29 9 9 8 12
-6 12 -9 0 -15 4 -12 9 3 5 -1 11 -9 15 -8 3 -15 10 -15 17 0 6 7 9 14 6 18
-7 30 25 21 54 -6 17 -9 19 -16 8 -7 -11 -9 -9 -9 8 0 12 5 23 10 25 14 4 23
45 21 95 -1 23 3 44 9 48 7 4 7 13 -1 27 -7 13 -10 105 -9 272 1 138 1 258 1
266 -1 8 -2 175 -4 370 -1 278 -5 354 -14 352 -18 -3 -16 15 1 21 11 5 14 146
15 879 0 480 1 911 1 958 2 462 -8 1083 -17 1088 -12 8 -13 43 -1 52 9 7 10
51 8 220 -1 80 -5 136 -9 126 -7 -19 -8 -19 -14 -1 -4 10 -1 27 7 40 16 25 20
131 5 140 -4 3 -5 13 -2 23 5 14 2 13 -11 -3 -14 -15 -16 -16 -13 -3 4 10 -2
18 -16 23 -19 6 -20 8 -4 12 9 2 17 10 17 18 0 15 -33 23 -90 21 -27 -1 -41 4
-44 14 -3 13 -4 13 -5 0 -1 -13 -48 -15 -349 -17 -525 -4 -521 -3 -558 -76 -9
-17 -20 -34 -23 -37 -3 -3 -51 -57 -106 -120 -55 -63 -104 -120 -110 -126 -5
-6 -46 -50 -89 -98 -48 -53 -85 -85 -93 -82 -8 4 -13 0 -11 -8 3 -14 -46 -66
-63 -66 -5 0 -9 -7 -9 -16 0 -8 -4 -12 -10 -9 -5 3 -10 -1 -10 -9 0 -10 -6
-13 -15 -10 -11 5 -13 2 -9 -9 6 -17 -27 -52 -49 -52 -7 0 -12 -7 -12 -15 0
-15 -56 -80 -69 -80 -9 0 -42 -34 -61 -64 -10 -14 -21 -26 -25 -26 -8 0 -110
-102 -260 -257 -27 -29 -50 -50 -50 -47 0 3 -9 -4 -21 -15 -12 -11 -18 -24
-15 -30 4 -7 1 -8 -8 -5 -9 4 -16 1 -16 -6 0 -7 -7 -10 -16 -6 -13 5 -15 1
-10 -17 4 -18 -1 -27 -24 -41 -17 -9 -35 -14 -40 -11 -10 6 -14 -6 -11 -36 1
-12 -6 -14 -34 -11 -35 4 -60 22 -31 22 21 0 21 16 0 24 -11 4 -18 -1 -21 -14
-3 -11 -12 -20 -19 -20 -19 0 -18 -19 1 -26 20 -8 -39 -64 -67 -64 -15 0 -19
-5 -15 -20 4 -17 0 -20 -26 -21 -18 0 -26 -3 -19 -6 17 -7 15 -23 -3 -23 -8 0
-15 -9 -15 -20 0 -11 -5 -20 -11 -20 -5 0 -8 -4 -5 -9 3 -4 -10 -1 -29 7 -19
9 -37 22 -40 30 -6 17 27 52 49 52 19 0 28 14 20 34 -7 18 -69 23 -79 6 -4 -6
7 -10 24 -10 37 0 40 -13 6 -28 -14 -6 -25 -17 -25 -24 0 -10 -2 -10 -9 0 -6
10 -12 4 -24 -20 -13 -25 -17 -28 -17 -13 0 11 7 30 15 42 13 18 13 22 -3 35
-25 22 -52 30 -52 15 1 -19 24 -44 38 -40 7 3 10 -1 6 -11 -9 -23 -16 -19 -40
17 -21 34 -21 57 0 57 7 0 12 9 11 20 -2 23 -40 54 -55 45 -6 -3 -10 -1 -10 4
0 6 7 11 15 11 20 0 19 10 -4 40 l-19 25 -8 -30 c-6 -26 -8 -27 -15 -10 -4 11
-8 33 -8 48 -1 20 -6 27 -16 25 -10 -2 -26 15 -43 47 -15 28 -30 52 -33 55 -4
3 -9 15 -13 26 -6 19 -3 21 19 16 17 -3 24 -9 21 -18 -3 -8 1 -14 9 -14 9 0
12 6 8 18 -9 24 -19 29 -52 27 -24 -1 -30 4 -40 32 -7 18 -17 33 -22 33 -5 0
-7 12 -4 28 3 15 2 21 -1 14 -4 -8 -11 -6 -24 10 -16 21 -16 23 -1 35 14 10
13 11 -6 6 -18 -4 -23 0 -29 23 -4 16 -10 31 -13 34 -4 3 -14 17 -24 33 -18
28 -3 36 18 9 7 -9 10 -5 12 14 1 19 -1 23 -8 13 -7 -11 -9 -11 -9 -1 0 8 -5
10 -12 6 -7 -5 -9 -2 -5 9 4 10 -1 18 -13 22 -10 3 -23 18 -29 33 -6 15 -24
45 -40 67 -21 28 -26 42 -18 47 9 6 9 8 0 8 -15 0 -64 70 -57 82 3 4 0 8 -6 8
-5 0 -18 17 -28 38 -9 20 -20 39 -23 42 -13 11 -30 51 -24 60 3 5 0 12 -6 16
-8 5 -9 3 -4 -7 5 -9 5 -11 -2 -4 -5 6 -16 26 -23 45 -8 19 -17 37 -20 40 -4
3 -13 19 -22 35 -32 64 -54 98 -85 132 -18 20 -30 39 -28 43 3 5 -7 11 -20 14
-14 4 -23 11 -20 16 3 5 -3 11 -14 15 -10 3 -29 15 -42 26 -14 12 -33 19 -47
16 -12 -2 -25 0 -28 5 -4 6 -10 5 -15 -3 -8 -12 -10 -12 -18 0 -5 7 -17 11
-27 7 -11 -3 -121 -7 -246 -8 -153 -1 -226 -5 -225 -12 1 -6 -4 -10 -11 -8 -7
1 -20 -12 -30 -29 -9 -17 -26 -41 -38 -53 -12 -12 -54 -60 -94 -107 -110 -128
-262 -284 -272 -281 -5 1 -7 -2 -4 -7 10 -16 -15 -25 -26 -10 -8 11 -9 10 -4
-4 7 -20 -57 -97 -70 -84 -5 4 -2 12 6 17 11 7 11 10 2 10 -14 0 -33 -40 -24
-54 3 -5 0 -6 -6 -2 -7 4 -12 1 -12 -10 0 -13 -3 -14 -15 -4 -15 12 -20 4 -16
-22 1 -10 -13 -10 -23 -1 -13 13 -36 11 -36 -3 0 -17 17 -18 23 -1 4 9 6 9 6
0 1 -7 -8 -17 -19 -23 -12 -6 -17 -17 -14 -28 4 -12 3 -13 -3 -4 -8 10 -12 10
-23 -2 -7 -9 -16 -13 -21 -10 -5 3 -9 0 -9 -5 0 -6 -18 -11 -40 -11 -48 0 -53
15 -9 24 27 5 30 8 19 21 -7 8 -19 15 -26 15 -8 0 -14 8 -15 18 0 9 -3 12 -5
6 -6 -14 -66 -5 -61 10 2 6 13 12 23 14 40 6 5 129 -36 132 -11 0 -30 67 -30
103 0 30 -4 37 -20 37 -16 0 -20 -7 -20 -34 0 -39 -28 -114 -30 -81 -1 11 -4
48 -6 83 -3 42 -1 61 6 57 6 -4 10 5 9 22 0 25 -1 26 -9 8 -5 -13 -7 5 -5 48
3 37 7 72 10 77 4 6 1 10 -6 10 -8 0 -10 12 -6 38 7 42 -21 102 -47 102 -9 0
-24 10 -36 22 -20 22 -27 22 -293 25 -149 2 -279 4 -287 4 -50 4 -200 -5 -210
-11 -8 -5 -19 -2 -27 6 -17 17 -37 8 -29 -13 4 -9 1 -13 -6 -11 -7 3 -22 -9
-33 -26 -38 -57 -39 -59 -13 -42 22 14 74 16 469 14 l444 -3 3 -2395 c3 -2440
1 -2581 -34 -2702 -76 -259 -334 -482 -656 -567 -209 -56 -168 -54 -1453 -60
-654 -3 -1248 -3 -1320 1 -319 17 -614 104 -853 250 -342 209 -575 566 -648
993 -14 78 -17 378 -26 2210 -5 1165 -7 2151 -3 2191 l6 71 121 7 c153 8 901
8 922 0 14 -5 16 -56 16 -464 0 -271 4 -461 9 -465 9 -5 6 -103 -5 -137 -3
-10 -2 -18 3 -18 5 0 7 -89 6 -197 -1 -117 2 -203 8 -209 7 -8 6 -14 0 -18
-11 -7 -7 -368 4 -386 4 -6 2 -16 -3 -23 -7 -8 -8 -37 -2 -82 5 -42 5 -76 -1
-87 -6 -12 -5 -24 3 -38 10 -16 10 -24 0 -41 -8 -12 -10 -25 -4 -32 9 -13 8
-184 -2 -223 -4 -13 -3 -24 1 -24 8 0 8 -348 0 -356 -2 -3 -2 -87 0 -187 3
-100 5 -190 4 -199 0 -10 -1 -26 -1 -35 0 -10 0 -38 -1 -63 -1 -25 -1 -49 0
-55 9 -83 10 -135 1 -140 -6 -3 -8 -10 -6 -13 2 -4 7 -57 11 -117 4 -61 8
-136 10 -169 2 -32 0 -67 -5 -77 -6 -10 -7 -20 -3 -22 13 -8 9 -80 -4 -84 -8
-3 -13 15 -16 54 -2 32 -4 -42 -5 -164 -2 -246 7 -340 45 -456 58 -176 198
-257 493 -287 82 -8 357 -10 945 -7 905 4 914 5 1060 63 128 52 264 160 330
264 74 116 126 288 144 474 8 74 11 743 10 2060 0 1735 -2 1949 -15 1930 -8
-12 -41 -53 -72 -92 -192 -236 -278 -335 -341 -395 -39 -37 -71 -69 -71 -71 0
-2 -15 -20 -34 -39 -22 -24 -36 -32 -39 -24 -3 7 -6 4 -6 -6 -1 -22 -50 -77
-68 -77 -7 0 -13 -6 -13 -14 0 -8 -13 -24 -30 -37 -16 -13 -30 -28 -30 -34 0
-5 -14 -23 -30 -39 -17 -16 -30 -33 -30 -38 0 -5 -12 -13 -26 -18 -14 -6 -23
-14 -19 -20 3 -5 -6 -17 -20 -26 -13 -9 -22 -20 -19 -25 6 -11 -20 -39 -36
-39 -6 0 -15 -12 -20 -26 -6 -14 -14 -23 -20 -19 -5 3 -16 -9 -24 -27 -8 -18
-29 -49 -48 -69 -18 -20 -44 -50 -57 -67 -14 -17 -29 -29 -33 -26 -5 3 -11 -9
-15 -26 -3 -18 -12 -34 -19 -37 -8 -3 -14 -10 -14 -15 0 -6 -11 -19 -25 -30
-18 -14 -24 -26 -19 -40 5 -17 3 -19 -14 -14 -15 5 -22 1 -28 -16 l-8 -23 -7
25 c-5 19 -7 12 -8 -27 -1 -49 -3 -53 -25 -53 -27 0 -49 -21 -41 -41 3 -8 -1
-43 -8 -78 -13 -64 -14 -64 -30 -41 l-16 23 -20 -24 -19 -24 39 -3 c38 -3 39
-4 39 -43 0 -34 -3 -39 -22 -39 l-23 -1 22 -18 c20 -17 21 -19 5 -35 -16 -16
-16 -18 1 -30 29 -22 19 -29 -37 -24 -47 4 -52 3 -39 -10 9 -9 13 -29 11 -51
-2 -32 0 -36 22 -37 54 -2 56 -4 36 -19 -11 -8 -28 -13 -38 -9 -16 5 -18 -1
-18 -58 1 -48 3 -59 11 -45 5 9 14 17 19 17 17 0 11 -28 -8 -42 -11 -7 -21
-25 -24 -40 -5 -24 -2 -28 18 -28 25 0 31 -20 18 -54 -5 -13 -9 -14 -20 -5
-11 9 -14 7 -14 -9 0 -12 8 -22 21 -25 23 -6 17 -27 -7 -27 -8 0 -14 -7 -14
-15 0 -8 5 -15 12 -15 6 0 9 -3 5 -6 -3 -4 0 -13 8 -21 20 -20 19 -29 -7 -53
-12 -11 -18 -23 -14 -27 4 -4 12 -1 17 7 9 12 10 12 5 -3 -3 -9 -1 -29 4 -43
8 -21 7 -25 -8 -23 -30 3 -43 -1 -37 -10 3 -5 1 -12 -5 -16 -5 -3 -10 1 -10 9
0 9 -6 16 -14 16 -20 0 -29 -17 -15 -26 9 -5 7 -11 -5 -19 -14 -11 -15 -13 -2
-18 9 -4 18 -2 21 3 4 6 15 10 26 10 10 0 19 6 19 14 0 17 30 30 43 17 5 -5 7
-17 5 -27 -3 -15 -12 -19 -46 -19 -47 0 -51 -4 -22 -25 11 -8 20 -23 20 -33 0
-16 2 -17 15 -7 20 17 27 9 31 -36 2 -28 -1 -37 -16 -41 -25 -7 -44 -59 -24
-67 8 -3 14 -15 14 -26 0 -11 5 -20 10 -20 6 0 10 -9 10 -20 0 -11 -7 -20 -15
-20 -10 0 -14 -11 -14 -37 0 -21 -3 -55 -6 -76 -6 -32 -5 -36 9 -31 12 5 16 0
16 -20 0 -15 -6 -29 -13 -32 -9 -3 -14 -22 -15 -50 0 -44 1 -46 27 -42 21 3
27 0 29 -16 0 -11 -4 -26 -10 -33 -8 -9 -7 -13 2 -13 10 0 10 -3 0 -15 -7 -8
-20 -15 -28 -15 -13 0 -13 -3 -4 -12 10 -10 15 -10 21 1 12 18 20 2 19 -37 -1
-18 -6 -32 -13 -32 -14 0 -15 -53 -2 -66 13 -13 7 -24 -12 -24 -38 0 -30 -18
12 -25 23 -4 36 -9 30 -12 -9 -3 -13 -26 -13 -64 0 -33 6 -69 13 -80 10 -17 9
-23 -1 -26 -14 -5 -6 -74 11 -84 13 -9 -4 -34 -23 -34 -23 0 -23 -31 -1 -78
26 -54 26 -68 0 -101 -18 -23 -21 -36 -16 -81 4 -40 2 -57 -9 -66 -8 -6 -14
-18 -14 -25 0 -18 46 -19 53 -1 3 6 6 0 6 -15 1 -14 -4 -28 -10 -30 -9 -3 -8
-10 1 -24 9 -14 10 -36 6 -68 -7 -44 -10 -47 -31 -42 -14 4 -28 0 -36 -10 -11
-14 -10 -18 5 -30 11 -7 23 -11 27 -8 19 11 8 -10 -16 -32 l-25 -23 39 -12
c25 -7 43 -20 50 -36 14 -29 14 -33 1 -33 -5 0 -10 9 -10 20 0 28 -13 25 -39
-10 -27 -38 -25 -74 6 -78 22 -3 22 -4 7 -28 -16 -23 -15 -24 5 -24 14 0 21
-6 21 -18 0 -10 5 -23 12 -30 7 -7 10 -12 7 -13 -43 -6 -59 -6 -59 2 0 5 9 9
20 9 18 0 19 2 8 20 -7 11 -21 20 -31 20 -14 0 -17 -5 -13 -20 3 -11 9 -29 12
-40 3 -11 10 -20 15 -20 5 0 9 -5 9 -11 0 -7 -11 -9 -30 -5 -22 4 -30 2 -30
-9 0 -8 9 -15 21 -15 11 0 17 -4 14 -10 -4 -6 -57 -10 -125 -10 -72 0 -121 -4
-125 -10 -5 -8 -11 -8 -20 0 -13 11 -245 11 -245 -1 0 -10 -519 -18 -545 -8
-14 5 -15 8 -5 8 13 1 13 3 1 10 -8 5 -47 7 -88 4 -65 -5 -73 -4 -67 11 5 12
0 16 -16 16 -19 0 -20 -2 -10 -15 7 -8 8 -15 4 -15 -5 0 -15 9 -22 20 -8 14
-22 20 -45 19 -30 -2 -30 -2 -4 -6 15 -2 27 -9 27 -14 0 -11 -25 -5 -75 17
-28 12 -28 13 -4 8 16 -3 30 -1 35 7 5 9 2 10 -9 6 -10 -3 -17 -2 -17 3 0 17
-38 11 -49 -7 -10 -17 -10 -17 -11 0 0 9 5 17 10 17 6 0 10 5 10 10 0 6 -11
10 -25 10 -16 0 -25 6 -25 15 0 8 -7 15 -15 15 -9 0 -12 -6 -9 -15 4 -8 1 -15
-6 -15 -6 0 -9 4 -6 8 2 4 -9 17 -25 27 -16 11 -31 26 -34 34 -5 11 -3 12 10
1 9 -7 19 -10 23 -6 4 4 -4 16 -17 27 -17 14 -19 19 -7 19 21 0 20 6 -8 43
-17 22 -22 37 -16 47 5 8 5 21 -1 31 -13 26 -12 48 2 29 9 -12 9 -11 3 5 -4
11 -9 36 -12 55 -5 30 -6 32 -11 12 -6 -21 -10 220 -10 503 1 309 7 1892 7
1910 1 11 1 106 1 210 0 206 0 452 1 500 0 16 6 32 11 36 8 4 7 8 -2 11 -11 4
-14 62 -16 299 -1 162 -2 310 -1 329 1 19 1 55 0 80 -1 25 -2 127 -3 228 -2
149 -5 182 -15 178 -8 -3 -14 1 -14 9 0 9 6 12 15 9 26 -10 17 22 -12 42 -14
10 -36 29 -48 41 -18 19 -32 23 -76 22 -80 -2 -153 8 -157 20 -2 6 -10 11 -18
11 -9 0 -12 -4 -9 -10z m5915 -122 c59 -34 86 -73 215 -313 59 -110 160 -294
225 -410 114 -206 235 -422 442 -797 57 -102 133 -244 171 -315 37 -70 112
-211 168 -313 89 -163 135 -250 319 -595 23 -44 71 -132 105 -195 34 -63 126
-232 203 -375 77 -143 164 -303 192 -355 29 -52 90 -165 135 -250 169 -320
323 -590 337 -590 5 0 7 1022 6 2270 l-3 2270 497 0 c386 0 499 -3 505 -12 9
-15 15 -4845 6 -5336 l-6 -332 -51 -15 c-131 -36 -463 -46 -644 -19 -180 26
-346 88 -472 175 -108 74 -264 252 -391 449 -164 253 -328 509 -339 530 -7 14
-37 61 -65 105 -132 203 -374 589 -490 780 -70 116 -137 226 -150 245 -12 19
-85 136 -160 260 -76 124 -166 270 -200 325 -108 175 -220 358 -266 434 -25
41 -50 76 -57 79 -10 3 -12 -332 -8 -1682 5 -1547 4 -1687 -11 -1693 -9 -3
-212 -7 -452 -7 l-436 -1 -5 2850 c-3 1568 -3 2854 -2 2858 2 5 146 7 320 5
l317 -3 45 -27z m-9213 10 c4 -7 8 -1019 9 -2248 l0 -2235 21 -77 c40 -142 93
-221 206 -304 71 -53 182 -96 307 -120 88 -18 161 -19 965 -20 l870 0 5 -355
c3 -195 4 -356 2 -358 -1 -3 -8 1 -14 7 -9 9 -271 12 -1077 12 -1129 1 -1588
10 -1736 34 -127 21 -236 59 -328 114 -183 109 -283 262 -307 469 -11 99 -15
5075 -3 5086 3 4 246 7 539 7 415 0 535 -3 541 -12z m12776 -13 c4 -8 2 -17
-3 -20 -6 -4 -10 -4 -10 -1 0 2 -3 11 -6 20 -3 9 -2 16 4 16 5 0 12 -7 15 -15z
m4 -252 c-3 -10 -5 -2 -5 17 0 19 2 27 5 18 2 -10 2 -26 0 -35z m0 -85 c-3 -7
-5 -2 -5 12 0 14 2 19 5 13 2 -7 2 -19 0 -25z m-12717 -59 c0 -5 -4 -9 -10 -9
-5 0 -10 7 -10 16 0 8 5 12 10 9 6 -3 10 -10 10 -16z m7529 -54 c0 -5 -4 -3
-9 5 -5 8 -9 22 -9 30 0 16 17 -16 18 -35z m21 -39 c0 -6 -9 -12 -20 -12 -12
0 -20 7 -20 17 0 12 6 16 20 12 11 -3 20 -11 20 -17z m5167 2 c-3 -8 -6 -5 -6
6 -1 11 2 17 5 13 3 -3 4 -12 1 -19z m-5200 -80 c-2 -13 -4 -5 -4 17 -1 22 1
32 4 23 2 -10 2 -28 0 -40z m23 -60 c-24 -22 -30 -23 -30 -2 0 9 8 23 17 30
26 18 37 -6 13 -28z m140 22 c0 -5 -4 -10 -10 -10 -5 0 -10 5 -10 10 0 6 5 10
10 10 6 0 10 -4 10 -10z m-80 -20 c0 -5 -7 -7 -15 -4 -8 4 -12 10 -9 15 6 11
24 2 24 -11z m5120 -43 c0 -18 -2 -19 -10 -7 -13 20 -13 43 0 35 6 -3 10 -16
10 -28z m-9193 -19 c-3 -7 -5 -2 -5 12 0 14 2 19 5 13 2 -7 2 -19 0 -25z m0
-140 c-3 -8 -6 -5 -6 6 -1 11 2 17 5 13 3 -3 4 -12 1 -19z m-3527 -298 c0 -5
-2 -10 -4 -10 -3 0 -8 5 -11 10 -3 6 -1 10 4 10 6 0 11 -4 11 -10z m9960 -175
c7 -9 8 -15 2 -15 -5 0 -12 7 -16 15 -3 8 -4 15 -2 15 2 0 9 -7 16 -15z m130
-194 c0 -12 -28 36 -34 59 -4 14 2 8 14 -14 11 -22 20 -42 20 -45z m130 39 c0
-5 -7 -10 -15 -10 -8 0 -15 -4 -15 -10 0 -5 -4 -10 -9 -10 -6 0 -9 9 -8 20 1
14 8 20 24 20 13 0 23 -4 23 -10z m-151 -55 c0 -14 -4 -10 -14 14 -19 42 -19
50 0 25 8 -10 14 -28 14 -39z m-12609 -1389 c0 -3 -4 -8 -10 -11 -5 -3 -10 -1
-10 4 0 6 5 11 10 11 6 0 10 -2 10 -4z m7740 -79 c5 2 7 -4 4 -12 -8 -21 -44
4 -44 30 1 20 1 20 16 0 8 -11 19 -19 24 -18z m-4213 -554 c-2 -16 -4 -5 -4
22 0 28 2 40 4 28 2 -13 2 -35 0 -50z m-3517 -163 c0 -5 -4 -10 -10 -10 -5 0
-10 5 -10 10 0 6 5 10 10 10 6 0 10 -4 10 -10z m3535 0 c3 -5 -1 -10 -9 -10
-9 0 -16 5 -16 10 0 6 4 10 9 10 6 0 13 -4 16 -10z m-950 -80 c3 -5 2 -10 -3
-10 -4 0 -8 -17 -8 -37 1 -27 -3 -38 -14 -38 -18 0 -22 51 -6 78 12 19 22 22
31 7z m-64 -37 c-9 -16 -10 -14 -11 12 0 21 3 26 11 18 8 -8 8 -16 0 -30z
m12729 -19 c0 -8 -4 -14 -10 -14 -5 0 -10 9 -10 21 0 11 5 17 10 14 6 -3 10
-13 10 -21z m-12720 -35 c0 -5 -4 -9 -10 -9 -5 0 -10 7 -10 16 0 8 5 12 10 9
6 -3 10 -10 10 -16z m-7 -64 c-7 -21 -13 -19 -13 6 0 11 4 18 10 14 5 -3 7
-12 3 -20z m3547 -19 c0 -3 -4 -8 -10 -11 -5 -3 -10 -1 -10 4 0 6 5 11 10 11
6 0 10 -2 10 -4z m9177 -28 c-3 -7 -5 -2 -5 12 0 14 2 19 5 13 2 -7 2 -19 0
-25z m-11707 2 c0 -5 -2 -10 -4 -10 -3 0 -8 5 -11 10 -3 6 -1 10 4 10 6 0 11
-4 11 -10z m-1010 -21 c0 -5 -4 -9 -10 -9 -5 0 -10 7 -10 16 0 8 5 12 10 9 6
-3 10 -10 10 -16z m12720 -69 c0 -5 -2 -10 -4 -10 -3 0 -8 5 -11 10 -3 6 -1
10 4 10 6 0 11 -4 11 -10z m-12739 -118 c-6 -2 -11 -15 -11 -29 0 -15 -2 -24
-5 -21 -3 2 -2 34 2 69 l7 64 9 -40 c7 -28 7 -40 -2 -43z m3566 -134 c-3 -8
-6 -5 -6 6 -1 11 2 17 5 13 3 -3 4 -12 1 -19z m36 -54 c-4 -12 -8 -13 -14 -3
-9 15 -2 32 11 24 5 -3 6 -13 3 -21z m1624 -6 c-3 -8 -6 -5 -6 6 -1 11 2 17 5
13 3 -3 4 -12 1 -19z m-5207 -80 c0 -4 -7 -5 -15 -2 -8 4 -15 18 -15 33 l1 26
14 -25 c8 -14 14 -28 15 -32z m3581 15 c-12 -20 -14 -14 -5 12 4 9 9 14 11 11
3 -2 0 -13 -6 -23z m-3587 -49 c3 -8 2 -12 -4 -9 -6 3 -10 10 -10 16 0 14 7
11 14 -7z m3601 -4 c3 -5 1 -10 -4 -10 -6 0 -11 5 -11 10 0 6 2 10 4 10 3 0 8
-4 11 -10z m-3550 -120 c3 -5 1 -10 -4 -10 -6 0 -11 5 -11 10 0 6 2 10 4 10 3
0 8 -4 11 -10z m24 -63 c4 1 7 -7 7 -17 0 -19 -1 -19 -22 1 -12 11 -25 30 -28
42 -5 21 -4 20 16 -3 11 -14 24 -24 27 -23z m12651 -187 c0 -5 -5 -10 -11 -10
-5 0 -7 5 -4 10 3 6 8 10 11 10 2 0 4 -4 4 -10z m-13 -342 c-2 -13 -4 -3 -4
22 0 25 2 35 4 23 2 -13 2 -33 0 -45z m13 -98 c0 -5 -5 -10 -11 -10 -5 0 -7 5
-4 10 3 6 8 10 11 10 2 0 4 -4 4 -10z m-5683 -502 c-3 -8 -6 -5 -6 6 -1 11 2
17 5 13 3 -3 4 -12 1 -19z m2397 -633 c-4 -8 -10 -15 -14 -15 -4 0 -10 7 -14
15 -4 10 1 15 14 15 13 0 18 -5 14 -15z m116 -75 c0 -5 -7 -7 -15 -4 -8 4 -15
8 -15 10 0 2 7 4 15 4 8 0 15 -4 15 -10z"/>
<path d="M12095 10020 c3 -5 8 -10 11 -10 2 0 4 5 4 10 0 6 -5 10 -11 10 -5 0
-7 -4 -4 -10z"/>
<path d="M12138 10013 c7 -3 16 -2 19 1 4 3 -2 6 -13 5 -11 0 -14 -3 -6 -6z"/>
<path d="M4680 9990 c0 -5 5 -10 11 -10 5 0 7 5 4 10 -3 6 -8 10 -11 10 -2 0
-4 -4 -4 -10z"/>
<path d="M12160 9989 c0 -5 5 -7 10 -4 6 3 10 8 10 11 0 2 -4 4 -10 4 -5 0
-10 -5 -10 -11z"/>
<path d="M12220 9962 c0 -10 6 -19 14 -19 8 0 11 8 8 19 -2 10 -8 18 -13 18
-5 0 -9 -8 -9 -18z"/>
<path d="M11215 9939 c-4 -6 -5 -12 -2 -15 2 -3 7 2 10 11 7 17 1 20 -8 4z"/>
<path d="M12428 9943 c6 -2 18 -2 25 0 6 3 1 5 -13 5 -14 0 -19 -2 -12 -5z"/>
<path d="M13075 9939 c-4 -6 -5 -12 -2 -15 2 -3 7 2 10 11 7 17 1 20 -8 4z"/>
<path d="M4700 9890 c0 -11 4 -20 8 -20 4 0 8 9 8 20 0 11 -4 20 -8 20 -4 0
-8 -9 -8 -20z"/>
<path d="M13090 9890 c-6 -11 -8 -20 -6 -20 3 0 10 9 16 20 6 11 8 20 6 20 -3
0 -10 -9 -16 -20z"/>
<path d="M12560 9888 c0 -9 -8 -18 -17 -20 -15 -3 -13 -5 5 -10 26 -7 42 16
23 35 -8 8 -11 7 -11 -5z"/>
<path d="M7049 9868 c-5 -16 -4 -46 2 -42 4 2 7 13 6 24 -1 17 -5 26 -8 18z"/>
<path d="M12231 9854 c0 -11 3 -14 6 -6 3 7 2 16 -1 19 -3 4 -6 -2 -5 -13z"/>
<path d="M12307 9843 c-11 -10 -8 -43 3 -43 6 0 10 11 10 25 0 26 -2 29 -13
18z"/>
<path d="M12590 9825 c0 -8 5 -15 10 -15 6 0 10 7 10 15 0 8 -4 15 -10 15 -5
0 -10 -7 -10 -15z"/>
<path d="M12254 9779 c-3 -6 -2 -15 3 -20 13 -13 70 -29 77 -21 12 12 6 52 -9
52 -9 0 -12 -6 -9 -15 4 -10 0 -15 -15 -15 -12 0 -21 6 -21 15 0 17 -16 20
-26 4z"/>
<path d="M3456 9755 c-9 -26 -7 -32 5 -12 6 10 9 21 6 23 -2 3 -7 -2 -11 -11z"/>
<path d="M12356 9716 c2 -16 4 -33 4 -39 0 -6 6 -2 14 9 14 18 15 18 21 1 4
-9 2 -23 -4 -31 -6 -7 -8 -21 -5 -30 5 -14 9 -12 21 11 16 31 3 68 -28 78 -10
3 -20 11 -22 18 -2 7 -3 -1 -1 -17z"/>
<path d="M14044 9739 c-3 -6 -2 -15 3 -20 5 -5 9 -1 9 11 0 23 -2 24 -12 9z"/>
<path d="M12236 9724 c-4 -10 -1 -14 6 -12 15 5 23 28 10 28 -5 0 -13 -7 -16
-16z"/>
<path d="M12277 9700 c-19 -23 -17 -24 17 -9 14 7 23 16 20 20 -8 14 -18 11
-37 -11z"/>
<path d="M12341 9664 c0 -11 3 -14 6 -6 3 7 2 16 -1 19 -3 4 -6 -2 -5 -13z"/>
<path d="M12321 9654 c0 -11 3 -14 6 -6 3 7 2 16 -1 19 -3 4 -6 -2 -5 -13z"/>
<path d="M14135 9610 c10 -11 20 -20 23 -20 3 0 -3 9 -13 20 -10 11 -20 20
-23 20 -3 0 3 -9 13 -20z"/>
<path d="M12490 9606 c0 -2 7 -6 15 -10 8 -3 15 -1 15 4 0 6 -7 10 -15 10 -8
0 -15 -2 -15 -4z"/>
<path d="M12467 9556 c-4 -10 -7 -33 -7 -52 0 -20 -5 -34 -12 -34 -7 0 -4 -7
7 -16 11 -8 19 -17 18 -19 -2 -3 -2 -8 -2 -12 1 -5 5 10 8 32 3 22 2 43 -4 47
-15 11 26 49 46 43 9 -3 21 0 25 6 5 9 -2 11 -29 6 -22 -3 -37 -1 -40 6 -2 6
-6 3 -10 -7z"/>
<path d="M12570 9539 c0 -5 5 -7 10 -4 6 3 10 8 10 11 0 2 -4 4 -10 4 -5 0
-10 -5 -10 -11z"/>
<path d="M12625 9540 c3 -5 8 -10 11 -10 2 0 4 5 4 10 0 6 -5 10 -11 10 -5 0
-7 -4 -4 -10z"/>
<path d="M12380 9500 c0 -5 5 -10 10 -10 6 0 10 5 10 10 0 6 -4 10 -10 10 -5
0 -10 -4 -10 -10z"/>
<path d="M12525 9400 c-3 -5 -1 -10 4 -10 6 0 11 5 11 10 0 6 -2 10 -4 10 -3
0 -8 -4 -11 -10z"/>
<path d="M12570 9380 c0 -5 5 -10 11 -10 5 0 7 5 4 10 -3 6 -8 10 -11 10 -2 0
-4 -4 -4 -10z"/>
<path d="M12480 9364 c0 -8 5 -12 10 -9 6 4 8 11 5 16 -9 14 -15 11 -15 -7z"/>
<path d="M14270 9340 c0 -5 5 -10 11 -10 5 0 7 5 4 10 -3 6 -8 10 -11 10 -2 0
-4 -4 -4 -10z"/>
<path d="M12480 9289 c0 -5 5 -7 10 -4 6 3 10 8 10 11 0 2 -4 4 -10 4 -5 0
-10 -5 -10 -11z"/>
<path d="M14312 9261 c4 -13 18 -16 19 -4 0 4 -5 9 -11 12 -7 2 -11 -2 -8 -8z"/>
<path d="M10355 8980 c-3 -5 -2 -10 4 -10 5 0 13 5 16 10 3 6 2 10 -4 10 -5 0
-13 -4 -16 -10z"/>
<path d="M14466 8977 c3 -10 9 -15 12 -12 3 3 0 11 -7 18 -10 9 -11 8 -5 -6z"/>
<path d="M4766 8961 c-4 -7 -5 -15 -2 -18 9 -9 19 4 14 18 -4 11 -6 11 -12 0z"/>
<path d="M4766 8885 c-3 -8 -1 -15 4 -15 6 0 10 7 10 15 0 8 -2 15 -4 15 -2 0
-6 -7 -10 -15z"/>
<path d="M14600 8860 c0 -5 5 -10 10 -10 6 0 10 5 10 10 0 6 -4 10 -10 10 -5
0 -10 -4 -10 -10z"/>
<path d="M14820 8861 c0 -6 5 -13 10 -16 6 -3 10 1 10 9 0 9 -4 16 -10 16 -5
0 -10 -4 -10 -9z"/>
<path d="M14756 8845 c-24 -13 -31 -13 -38 -3 -7 10 -9 9 -5 -2 2 -10 19 -16
45 -18 37 -3 42 -1 42 17 0 25 -6 26 -44 6z"/>
<path d="M17535 8850 c3 -5 8 -10 11 -10 2 0 4 5 4 10 0 6 -5 10 -11 10 -5 0
-7 -4 -4 -10z"/>
<path d="M14540 8826 c0 -2 7 -9 15 -16 9 -7 15 -8 15 -2 0 5 -7 12 -15 16 -8
3 -15 4 -15 2z"/>
<path d="M14665 8811 c-6 -11 9 -23 19 -14 9 9 7 23 -3 23 -6 0 -12 -4 -16 -9z"/>
<path d="M14610 8791 c0 -6 5 -13 10 -16 6 -3 10 1 10 9 0 9 -4 16 -10 16 -5
0 -10 -4 -10 -9z"/>
<path d="M14880 8775 c0 -21 5 -25 30 -25 17 0 30 5 30 10 0 6 -4 10 -10 10
-5 0 -7 7 -4 15 5 11 -1 15 -20 15 -21 0 -26 -5 -26 -25z"/>
<path d="M14580 8776 c0 -9 5 -16 10 -16 6 0 10 4 10 9 0 6 -4 13 -10 16 -5 3
-10 -1 -10 -9z"/>
<path d="M14784 8755 c-17 -25 -48 -33 -59 -15 -3 6 -18 10 -32 10 l-26 0 22
-24 c13 -14 30 -22 38 -19 11 5 14 -1 11 -23 -3 -31 23 -43 27 -13 2 14 25 69
42 102 10 18 -8 4 -23 -18z"/>
<path d="M14626 8745 c-3 -9 -6 -26 -5 -38 1 -16 4 -12 10 12 10 34 6 55 -5
26z"/>
<path d="M8330 8734 c0 -8 5 -12 10 -9 6 3 10 10 10 16 0 5 -4 9 -10 9 -5 0
-10 -7 -10 -16z"/>
<path d="M14827 8744 c-13 -13 -7 -24 14 -24 11 0 19 5 17 12 -5 14 -22 21
-31 12z"/>
<path d="M4910 8710 c0 -5 5 -10 11 -10 5 0 7 5 4 10 -3 6 -8 10 -11 10 -2 0
-4 -4 -4 -10z"/>
<path d="M14783 8677 c-3 -6 -1 -13 5 -15 7 -2 12 -8 12 -14 0 -5 -9 -6 -20
-3 -11 4 -20 2 -20 -4 0 -6 7 -11 15 -11 18 0 20 -21 3 -38 -9 -9 -4 -12 25
-12 37 0 37 0 37 43 0 35 -4 44 -25 54 -18 8 -27 8 -32 0z"/>
<path d="M14695 8670 c-3 -5 -2 -17 3 -26 8 -14 10 -12 14 10 5 26 -5 35 -17
16z"/>
<path d="M14874 8635 c1 -32 5 -40 21 -43 18 -3 19 -2 3 11 -9 7 -18 26 -21
42 -3 22 -4 19 -3 -10z"/>
<path d="M14956 8657 c3 -10 9 -15 12 -12 3 3 0 11 -7 18 -10 9 -11 8 -5 -6z"/>
<path d="M14960 8585 c0 -13 4 -14 20 -5 11 6 20 13 20 15 0 3 -9 5 -20 5 -11
0 -20 -7 -20 -15z"/>
<path d="M4870 8565 c0 -14 2 -25 4 -25 2 0 6 11 8 25 3 14 1 25 -3 25 -5 0
-9 -11 -9 -25z"/>
<path d="M8325 8579 c-12 -19 5 -23 22 -6 16 16 16 17 1 17 -9 0 -20 -5 -23
-11z"/>
<path d="M8420 8560 c0 -5 4 -10 9 -10 6 0 13 5 16 10 3 6 -1 10 -9 10 -9 0
-16 -4 -16 -10z"/>
<path d="M4820 8510 c8 -5 20 -10 25 -10 6 0 3 5 -5 10 -8 5 -19 10 -25 10 -5
0 -3 -5 5 -10z"/>
<path d="M9960 8500 c0 -5 5 -10 10 -10 6 0 10 5 10 10 0 6 -4 10 -10 10 -5 0
-10 -4 -10 -10z"/>
<path d="M8371 8384 c0 -11 3 -14 6 -6 3 7 2 16 -1 19 -3 4 -6 -2 -5 -13z"/>
<path d="M4760 8371 c0 -5 5 -13 10 -16 6 -3 10 -2 10 4 0 5 -4 13 -10 16 -5
3 -10 2 -10 -4z"/>
<path d="M4762 8310 c0 -14 2 -19 5 -12 2 6 2 18 0 25 -3 6 -5 1 -5 -13z"/>
<path d="M8331 8286 c-10 -12 -8 -13 9 -9 25 7 37 23 17 23 -8 0 -20 -6 -26
-14z"/>
<path d="M4780 8161 c0 -10 30 -24 37 -17 3 3 2 9 -2 15 -8 13 -35 15 -35 2z"/>
<path d="M4871 8154 c0 -11 3 -14 6 -6 3 7 2 16 -1 19 -3 4 -6 -2 -5 -13z"/>
<path d="M4766 8091 c-4 -5 -2 -12 3 -15 5 -4 12 -2 15 3 4 5 2 12 -3 15 -5 4
-12 2 -15 -3z"/>
<path d="M4765 7997 c-4 -10 -5 -21 -1 -24 10 -10 18 4 13 24 -4 17 -4 17 -12
0z"/>
<path d="M4765 7817 c-4 -10 -5 -21 -1 -24 10 -10 18 4 13 24 -4 17 -4 17 -12
0z"/>
<path d="M2151 7764 c0 -11 3 -14 6 -6 3 7 2 16 -1 19 -3 4 -6 -2 -5 -13z"/>
<path d="M9810 7740 c0 -5 5 -10 11 -10 5 0 7 5 4 10 -3 6 -8 10 -11 10 -2 0
-4 -4 -4 -10z"/>
<path d="M4770 7649 c0 -5 5 -7 10 -4 6 3 10 8 10 11 0 2 -4 4 -10 4 -5 0 -10
-5 -10 -11z"/>
<path d="M9480 7500 c0 -5 5 -10 10 -10 6 0 10 5 10 10 0 6 -4 10 -10 10 -5 0
-10 -4 -10 -10z"/>
<path d="M9760 7480 c0 -5 5 -10 10 -10 6 0 10 5 10 10 0 6 -4 10 -10 10 -5 0
-10 -4 -10 -10z"/>
<path d="M4770 7335 c0 -8 4 -15 10 -15 5 0 7 7 4 15 -4 8 -8 15 -10 15 -2 0
-4 -7 -4 -15z"/>
<path d="M4765 7300 c-3 -6 -5 -30 -4 -55 2 -24 0 -47 -4 -51 -10 -11 -9 -24
3 -24 6 0 10 7 10 15 0 8 6 15 14 15 7 0 16 10 20 23 9 33 7 44 -5 27 -8 -12
-10 -9 -6 12 4 30 -16 58 -28 38z"/>
<path d="M4878 7246 c-12 -62 12 -92 52 -66 13 9 13 11 0 20 -8 5 -23 10 -32
10 -20 0 -24 16 -6 22 8 3 8 9 1 22 -9 17 -11 16 -15 -8z"/>
<path d="M17660 7240 c-13 -8 -12 -10 3 -10 9 0 17 5 17 10 0 12 -1 12 -20 0z"/>
<path d="M4970 7200 c-12 -23 11 -82 24 -61 4 7 2 19 -6 28 -11 14 -10 15 9 9
20 -6 21 -5 10 18 -14 31 -23 32 -37 6z"/>
<path d="M4775 7150 c-4 -6 -9 -53 -12 -105 -6 -104 -5 -107 47 -80 26 14 30
21 30 60 0 38 -3 45 -19 45 -15 0 -21 -8 -24 -37 l-4 -38 0 40 c1 23 -2 46 -6
52 -4 6 -3 14 2 17 5 4 12 0 14 -6 3 -7 6 -1 6 15 1 15 -4 27 -11 27 -9 0 -8
4 2 10 13 8 13 10 -2 10 -9 0 -20 -5 -23 -10z"/>
<path d="M4860 7139 c0 -5 5 -7 10 -4 6 3 10 -3 10 -14 0 -10 -4 -21 -9 -23
-5 -2 -6 -29 -1 -63 5 -40 8 -50 10 -30 2 17 3 37 2 45 0 8 4 18 10 21 16 10
0 79 -17 79 -8 0 -15 -5 -15 -11z"/>
<path d="M2137 7086 c-6 -15 1 -26 15 -26 4 0 8 9 8 20 0 23 -15 27 -23 6z"/>
<path d="M2115 7050 c-3 -5 -1 -10 4 -10 6 0 11 5 11 10 0 6 -2 10 -4 10 -3 0
-8 -4 -11 -10z"/>
<path d="M8328 6993 c7 -3 16 -2 19 1 4 3 -2 6 -13 5 -11 0 -14 -3 -6 -6z"/>
<path d="M4852 6924 c-18 -12 -29 -13 -52 -5 -18 6 -30 6 -30 0 0 -5 9 -9 19
-9 10 0 22 -8 26 -17 6 -17 7 -17 19 0 13 16 14 16 29 -5 16 -23 16 -23 16 15
1 20 0 37 -2 37 -1 0 -13 -7 -25 -16z"/>
<path d="M17571 6894 c0 -11 3 -14 6 -6 3 7 2 16 -1 19 -3 4 -6 -2 -5 -13z"/>
<path d="M4765 6853 c3 -48 4 -51 13 -35 10 14 3 72 -8 72 -4 0 -6 -17 -5 -37z"/>
<path d="M4762 6730 c0 -14 2 -19 5 -12 2 6 2 18 0 25 -3 6 -5 1 -5 -13z"/>
<path d="M4770 6560 c0 -5 5 -10 10 -10 6 0 10 5 10 10 0 6 -4 10 -10 10 -5 0
-10 -4 -10 -10z"/>
<path d="M4770 6509 c0 -15 5 -19 15 -15 10 3 15 -1 15 -11 0 -9 3 -14 6 -10
9 9 -5 45 -21 51 -10 4 -15 -1 -15 -15z"/>
<path d="M5613 6433 c9 -2 25 -2 35 0 9 3 1 5 -18 5 -19 0 -27 -2 -17 -5z"/>
<path d="M2080 6210 c0 -5 5 -10 10 -10 6 0 10 5 10 10 0 6 -4 10 -10 10 -5 0
-10 -4 -10 -10z"/>
<path d="M5635 6190 c-3 -6 1 -7 9 -4 18 7 21 14 7 14 -6 0 -13 -4 -16 -10z"/>
<path d="M17566 5891 c-4 -7 -5 -15 -2 -18 9 -9 19 4 14 18 -4 11 -6 11 -12 0z"/>
<path d="M2120 5884 c0 -7 27 -34 34 -34 3 0 6 9 6 20 0 13 -7 20 -20 20 -11
0 -20 -3 -20 -6z"/>
<path d="M17505 5870 c-3 -5 -1 -10 4 -10 6 0 11 5 11 10 0 6 -2 10 -4 10 -3
0 -8 -4 -11 -10z"/>
<path d="M4765 5790 c3 -5 8 -10 11 -10 2 0 4 5 4 10 0 6 -5 10 -11 10 -5 0
-7 -4 -4 -10z"/>
<path d="M17585 5780 c3 -5 8 -10 11 -10 2 0 4 5 4 10 0 6 -5 10 -11 10 -5 0
-7 -4 -4 -10z"/>
<path d="M4766 5718 c-3 -13 -1 -27 4 -32 7 -7 10 1 10 22 0 37 -5 41 -14 10z"/>
<path d="M4800 5645 c0 -9 9 -15 21 -15 18 0 19 2 9 15 -7 8 -16 15 -21 15 -5
0 -9 -7 -9 -15z"/>
<path d="M4877 5611 c-2 -10 -1 -25 4 -32 6 -10 9 -4 9 19 0 36 -5 42 -13 13z"/>
<path d="M5647 5622 c6 -4 16 -23 21 -42 l10 -35 1 43 c1 37 -2 42 -21 42 -14
0 -18 -3 -11 -8z"/>
<path d="M4710 5582 c0 -19 12 -42 22 -42 14 0 5 43 -9 48 -7 2 -13 -1 -13 -6z"/>
<path d="M8363 5553 c9 -2 23 -2 30 0 6 3 -1 5 -18 5 -16 0 -22 -2 -12 -5z"/>
<path d="M5640 5499 c0 -5 5 -7 10 -4 6 3 10 8 10 11 0 2 -4 4 -10 4 -5 0 -10
-5 -10 -11z"/>
<path d="M17505 5460 c3 -5 8 -10 11 -10 2 0 4 5 4 10 0 6 -5 10 -11 10 -5 0
-7 -4 -4 -10z"/>
<path d="M4830 5440 c0 -5 5 -10 10 -10 6 0 10 5 10 10 0 6 -4 10 -10 10 -5 0
-10 -4 -10 -10z"/>
<path d="M4874 5412 c-1 -20 1 -30 3 -21 2 10 14 20 26 24 21 7 21 7 2 12 -11
3 -22 9 -26 14 -3 5 -5 -8 -5 -29z"/>
<path d="M17635 5410 c-3 -5 1 -10 9 -10 9 0 16 5 16 10 0 6 -4 10 -9 10 -6 0
-13 -4 -16 -10z"/>
<path d="M4920 5355 c0 -8 5 -15 10 -15 6 0 10 7 10 15 0 8 -4 15 -10 15 -5 0
-10 -7 -10 -15z"/>
<path d="M9761 5341 c-1 -27 2 -32 11 -23 8 8 8 17 0 34 -10 22 -11 21 -11
-11z"/>
<path d="M9801 5357 c-14 -17 -4 -47 14 -47 9 0 16 -15 18 -37 2 -21 3 -11 1
22 -4 65 -14 84 -33 62z"/>
<path d="M4781 5351 c-9 -6 -7 -10 8 -14 12 -3 21 -1 21 3 0 14 -15 19 -29 11z"/>
<path d="M8480 5350 c0 -5 5 -10 10 -10 6 0 10 5 10 10 0 6 -4 10 -10 10 -5 0
-10 -4 -10 -10z"/>
<path d="M9840 5340 c0 -5 5 -10 10 -10 6 0 10 5 10 10 0 6 -4 10 -10 10 -5 0
-10 -4 -10 -10z"/>
<path d="M2145 5320 c-3 -5 -1 -10 4 -10 6 0 11 5 11 10 0 6 -2 10 -4 10 -3 0
-8 -4 -11 -10z"/>
<path d="M8380 5311 c0 -25 6 -27 13 -6 4 8 2 17 -3 20 -6 4 -10 -3 -10 -14z"/>
<path d="M17498 5323 c7 -3 16 -2 19 1 4 3 -2 6 -13 5 -11 0 -14 -3 -6 -6z"/>
<path d="M4786 5297 c3 -10 9 -15 12 -12 3 3 0 11 -7 18 -10 9 -11 8 -5 -6z"/>
<path d="M4816 5295 c4 -8 10 -12 15 -9 14 8 10 24 -6 24 -9 0 -12 -6 -9 -15z"/>
<path d="M8508 5303 c7 -3 16 -2 19 1 4 3 -2 6 -13 5 -11 0 -14 -3 -6 -6z"/>
<path d="M8551 5271 c-8 -5 -9 -11 -3 -15 5 -3 12 1 16 9 6 17 6 18 -13 6z"/>
<path d="M4791 5254 c0 -11 3 -14 6 -6 3 7 2 16 -1 19 -3 4 -6 -2 -5 -13z"/>
<path d="M2125 5170 c3 -5 8 -10 11 -10 2 0 4 5 4 10 0 6 -5 10 -11 10 -5 0
-7 -4 -4 -10z"/>
<path d="M4945 5150 c3 -5 11 -10 16 -10 6 0 7 5 4 10 -3 6 -11 10 -16 10 -6
0 -7 -4 -4 -10z"/>
<path d="M4930 5111 c0 -6 5 -13 10 -16 6 -3 10 1 10 9 0 9 -4 16 -10 16 -5 0
-10 -4 -10 -9z"/>
<path d="M5420 5110 c0 -5 5 -10 10 -10 6 0 10 5 10 10 0 6 -4 10 -10 10 -5 0
-10 -4 -10 -10z"/>
<path d="M5600 5080 c0 -5 5 -10 10 -10 6 0 10 5 10 10 0 6 -4 10 -10 10 -5 0
-10 -4 -10 -10z"/>
<path d="M4918 5073 c6 -2 9 -10 6 -15 -4 -7 -2 -8 5 -4 13 9 5 26 -12 25 -9
0 -8 -2 1 -6z"/>
<path d="M5015 5061 c-6 -11 13 -26 22 -17 4 3 1 6 -6 6 -7 0 -9 5 -6 10 3 6
4 10 1 10 -3 0 -7 -4 -11 -9z"/>
<path d="M5148 5063 c6 -2 18 -2 25 0 6 3 1 5 -13 5 -14 0 -19 -2 -12 -5z"/>
<path d="M5398 5058 c9 -9 15 -9 24 0 9 9 7 12 -12 12 -19 0 -21 -3 -12 -12z"/>
<path d="M4980 5051 c0 -5 7 -12 16 -15 14 -5 15 -4 4 9 -14 17 -20 19 -20 6z"/>
<path d="M5055 5040 c-3 -5 1 -10 10 -10 9 0 13 5 10 10 -3 6 -8 10 -10 10 -2
0 -7 -4 -10 -10z"/>
<path d="M5198 4983 c7 -3 16 -2 19 1 4 3 -2 6 -13 5 -11 0 -14 -3 -6 -6z"/>
<path d="M17550 4620 c0 -5 5 -10 10 -10 6 0 10 5 10 10 0 6 -4 10 -10 10 -5
0 -10 -4 -10 -10z"/>
<path d="M17683 4470 c0 -25 2 -35 4 -22 2 12 2 32 0 45 -2 12 -4 2 -4 -23z"/>
<path d="M17583 4473 c-18 -7 -16 -23 2 -23 8 0 15 7 15 15 0 8 -1 15 -2 14
-2 0 -9 -3 -15 -6z"/>
<path d="M17430 4248 c0 -7 -3 -24 -7 -38 -6 -23 -5 -23 9 -10 24 25 32 60 14
60 -9 0 -16 -6 -16 -12z"/>
<path d="M11476 3962 c-3 -6 -1 -14 5 -17 15 -10 25 3 12 16 -7 7 -13 7 -17 1z"/>
<path d="M11435 3908 c-6 -12 -21 -25 -35 -28 -23 -6 -21 -7 11 -11 35 -4 36
-3 37 28 2 39 0 40 -13 11z"/>
<path d="M11700 3921 l-25 -7 25 -7 c40 -11 60 -8 60 8 0 16 -19 18 -60 6z"/>
<path d="M11585 3907 c-4 -10 -5 -21 -1 -24 10 -10 18 4 13 24 -4 17 -4 17
-12 0z"/>
<path d="M11370 3850 c0 -5 5 -10 10 -10 6 0 10 -4 10 -10 0 -5 -6 -10 -14
-10 -7 0 -19 -6 -25 -14 -19 -23 16 -29 39 -6 11 11 17 20 13 20 -3 0 2 9 12
20 18 20 17 20 -13 20 -18 0 -32 -4 -32 -10z"/>
<path d="M11738 3801 c-14 -5 -13 -8 7 -23 20 -15 25 -16 35 -3 10 12 9 15 -3
15 -8 0 -17 4 -19 9 -1 4 -10 6 -20 2z"/>
<path d="M11880 3750 c0 -48 15 -53 24 -9 9 45 8 49 -9 49 -11 0 -15 -11 -15
-40z"/>
<path d="M13920 3770 c0 -5 5 -10 11 -10 5 0 7 5 4 10 -3 6 -8 10 -11 10 -2 0
-4 -4 -4 -10z"/>
<path d="M11820 3725 c-10 -12 -10 -15 4 -15 9 0 16 7 16 15 0 8 -2 15 -4 15
-2 0 -9 -7 -16 -15z"/>
<path d="M13800 3710 c0 -5 5 -10 10 -10 6 0 10 5 10 10 0 6 -4 10 -10 10 -5
0 -10 -4 -10 -10z"/>
<path d="M13745 3640 c-3 -5 -1 -10 4 -10 6 0 11 5 11 10 0 6 -2 10 -4 10 -3
0 -8 -4 -11 -10z"/>
<path d="M8685 3460 c4 -6 11 -8 16 -5 14 9 11 15 -7 15 -8 0 -12 -5 -9 -10z"/>
<path d="M14066 3463 c5 -5 12 -12 16 -18 4 -6 8 -2 8 8 0 9 -7 17 -17 17 -9
0 -12 -3 -7 -7z"/>
<path d="M14135 3400 c-3 -5 -1 -10 4 -10 6 0 11 5 11 10 0 6 -2 10 -4 10 -3
0 -8 -4 -11 -10z"/>
<path d="M14320 3340 c0 -5 7 -10 15 -10 8 0 15 5 15 10 0 6 -7 10 -15 10 -8
0 -15 -4 -15 -10z"/>
<path d="M15293 3343 c9 -2 23 -2 30 0 6 3 -1 5 -18 5 -16 0 -22 -2 -12 -5z"/>
</g>
</svg>
