<svg width="160.48001708984376px" height="124.439990234375px" xmlns="http://www.w3.org/2000/svg" viewBox="169.75999145507814 12.780004882812499 160.48001708984376 124.439990234375" style="background: none;" preserveAspectRatio="xMidYMid"><defs><linearGradient id="editing-shiny-gradient" x1="0.11142701927151455" x2="0.8885729807284855" y1="0.1853398044750813" y2="0.8146601955249186" gradientUnits="objectBoundingBox"><stop offset="0.0" stop-color="#ffb200"></stop><stop offset="0.5" stop-color="#1eca35"></stop><stop offset="1.0" stop-color="#5a1a80"></stop></linearGradient><linearGradient id="editing-shiny-gradient2" x1="0" x2="0" y1="0" y2="1"><stop offset="0.2" stop-color="#fff" stop-opacity="0.8"></stop><stop offset="0.8" stop-color="#fff" stop-opacity="0"></stop></linearGradient><filter id="editing-shiny2" x="-100%" y="-100%" width="300%" height="300%"><feMorphology operator="erode" radius="2"></feMorphology></filter><filter id="editing-shiny" x="-100%" y="-100%" width="300%" height="300%"><feFlood flood-color="#fff" result="flood"></feFlood><feConvolveMatrix in="SourceGraphic" result="conv" order="8,8" divisor="1" kernelMatrix="0 0 0 0 0 0 0 0 0 0 0 1 1 0 0 0 0 0 0 1 1 0 0 0 0 0 1 0 0 1 0 0 0 0 1 0 0 1 0 0 0 1 0 0 0 0 1 0 0 1 1 0 0 1 1 0 0 0 0 1 1 0 0 0 "></feConvolveMatrix><feOffset dx="0" dy="4" in="conv" result="offset"></feOffset><feComposite operator="in" in="flood" in2="offset" result="comp"></feComposite><feGaussianBlur in="offset" stdDeviation="3" result="shadow"></feGaussianBlur><feColorMatrix in="shadow" type="matrix" values="0.7 0 0 0 0  0 0.7 0 0 0  0 0 0.7 0 0  0 0 0 0.3 0" result="dark-shadow"></feColorMatrix><feOffset dx="0" dy="4" in="dark-shadow" result="offset-shadow"></feOffset><feOffset dx="0" dy="2" in="conv" result="offset-2"></feOffset><feComposite operator="out" in="offset" in2="offset-2" result="edge-diff"></feComposite><feGaussianBlur in="edge-diff" stdDeviation="1" result="edge-blur"></feGaussianBlur><feColorMatrix in="edge-blur" result="edge-shadow" type="matrix" values="0 0 0 0 0  0 0 0 0 0  0 0 0 0 0  0 0 0 0.5 0"></feColorMatrix><feComposite operator="in" in="edge-shadow" in2="offset" result="edge-shadow-in"></feComposite><feOffset dx="0" dy="1" in="edge-shadow-in" result="edge-shadow-final"></feOffset><feMerge result="out"><feMergeNode in="offset-shadow"></feMergeNode><feMergeNode in="comp"></feMergeNode><feMergeNode in="edge-shadow-final"></feMergeNode><feMergeNode in="SourceGraphic"></feMergeNode></feMerge></filter></defs><g filter="url(#editing-shiny)"><g transform="translate(200.69000017642975, 98.68000030517578)"><path d="M16.38-3.52L16.38-3.52L16.38-3.52Q14.40 1.28 8.06 1.28L8.06 1.28L8.06 1.28Q4.86 1.28 2.82-0.96L2.82-0.96L2.82-0.96Q1.15-2.82 1.15-4.93L1.15-4.93L1.15-4.93Q1.15-9.73 3.39-20.22L3.39-20.22L8.06-44.80L21.06-46.08L14.85-13.70L14.85-13.70Q13.76-8.96 13.76-7.30L13.76-7.30L13.76-7.30Q13.76-3.65 16.38-3.52ZM42.37-2.69L42.37-2.69L42.37-2.69Q39.30 1.28 31.68 1.28L31.68 1.28L31.68 1.28Q27.71 1.28 24.83-1.12L24.83-1.12L24.83-1.12Q21.95-3.52 21.95-6.98L21.95-6.98L21.95-6.98Q21.95-8.90 22.14-9.86L22.14-9.86L26.43-32.64L39.42-33.92L34.75-9.22L34.75-9.22Q34.50-7.81 34.50-6.98L34.50-6.98L34.50-6.98Q34.50-3.26 36.74-3.26L36.74-3.26L36.74-3.26Q39.23-3.26 41.02-6.66L41.02-6.66L41.02-6.66Q41.60-7.74 41.86-9.15L41.86-9.15L46.40-32.64L59.01-33.92L54.27-8.96L54.27-8.96Q54.08-8 54.08-6.98L54.08-6.98L54.08-6.98Q54.08-5.95 54.66-4.83L54.66-4.83L54.66-4.83Q55.23-3.71 57.09-3.46L57.09-3.46L57.09-3.46Q56.70-1.92 55.36-0.90L55.36-0.90L55.36-0.90Q52.54 1.28 49.50 1.28L49.50 1.28L49.50 1.28Q46.46 1.28 44.67 0.19L44.67 0.19L44.67 0.19Q42.88-0.90 42.37-2.69ZM89.54 1.28L89.54 1.28L89.54 1.28Q81.79 1.28 81.79-4.74L81.79-4.74L81.79-4.74Q81.86-6.40 82.37-9.22L82.37-9.22L83.52-15.10L83.52-15.10Q85.25-23.42 85.25-25.28L85.25-25.28L85.25-25.28Q85.25-28.99 83.07-28.99L83.07-28.99L83.07-28.99Q79.42-28.99 77.50-19.46L77.50-19.46L73.73 0L60.86 1.28L67.52-32.70L78.02-33.92L76.99-27.65L76.99-27.65Q80-33.92 89.22-33.92L89.22-33.92L89.22-33.92Q93.70-33.92 95.58-32.03L95.58-32.03L95.58-32.03Q97.47-30.14 97.47-25.92L97.47-25.92L97.47-25.92Q97.47-21.95 95.42-12.67L95.42-12.67L95.42-12.67Q94.46-8.51 94.46-6.94L94.46-6.94L94.46-6.94Q94.46-5.38 95.33-4.48L95.33-4.48L95.33-4.48Q96.19-3.58 97.47-3.46L97.47-3.46L97.47-3.46Q96.83-1.28 94.62 0L94.62 0L94.62 0Q92.42 1.28 89.54 1.28Z" fill="url(#editing-shiny-gradient)"></path></g></g><g filter="url(#editing-shiny2)"><g transform="translate(200.68999636173248, 98.68000030517578)"><path d="M16.38-3.52L16.38-3.52L16.38-3.52Q14.40 1.28 8.06 1.28L8.06 1.28L8.06 1.28Q4.86 1.28 2.82-0.96L2.82-0.96L2.82-0.96Q1.15-2.82 1.15-4.93L1.15-4.93L1.15-4.93Q1.15-9.73 3.39-20.22L3.39-20.22L8.06-44.80L21.06-46.08L14.85-13.70L14.85-13.70Q13.76-8.96 13.76-7.30L13.76-7.30L13.76-7.30Q13.76-3.65 16.38-3.52ZM42.37-2.69L42.37-2.69L42.37-2.69Q39.30 1.28 31.68 1.28L31.68 1.28L31.68 1.28Q27.71 1.28 24.83-1.12L24.83-1.12L24.83-1.12Q21.95-3.52 21.95-6.98L21.95-6.98L21.95-6.98Q21.95-8.90 22.14-9.86L22.14-9.86L26.43-32.64L39.42-33.92L34.75-9.22L34.75-9.22Q34.50-7.81 34.50-6.98L34.50-6.98L34.50-6.98Q34.50-3.26 36.74-3.26L36.74-3.26L36.74-3.26Q39.23-3.26 41.02-6.66L41.02-6.66L41.02-6.66Q41.60-7.74 41.86-9.15L41.86-9.15L46.40-32.64L59.01-33.92L54.27-8.96L54.27-8.96Q54.08-8 54.08-6.98L54.08-6.98L54.08-6.98Q54.08-5.95 54.66-4.83L54.66-4.83L54.66-4.83Q55.23-3.71 57.09-3.46L57.09-3.46L57.09-3.46Q56.70-1.92 55.36-0.90L55.36-0.90L55.36-0.90Q52.54 1.28 49.50 1.28L49.50 1.28L49.50 1.28Q46.46 1.28 44.67 0.19L44.67 0.19L44.67 0.19Q42.88-0.90 42.37-2.69ZM89.54 1.28L89.54 1.28L89.54 1.28Q81.79 1.28 81.79-4.74L81.79-4.74L81.79-4.74Q81.86-6.40 82.37-9.22L82.37-9.22L83.52-15.10L83.52-15.10Q85.25-23.42 85.25-25.28L85.25-25.28L85.25-25.28Q85.25-28.99 83.07-28.99L83.07-28.99L83.07-28.99Q79.42-28.99 77.50-19.46L77.50-19.46L73.73 0L60.86 1.28L67.52-32.70L78.02-33.92L76.99-27.65L76.99-27.65Q80-33.92 89.22-33.92L89.22-33.92L89.22-33.92Q93.70-33.92 95.58-32.03L95.58-32.03L95.58-32.03Q97.47-30.14 97.47-25.92L97.47-25.92L97.47-25.92Q97.47-21.95 95.42-12.67L95.42-12.67L95.42-12.67Q94.46-8.51 94.46-6.94L94.46-6.94L94.46-6.94Q94.46-5.38 95.33-4.48L95.33-4.48L95.33-4.48Q96.19-3.58 97.47-3.46L97.47-3.46L97.47-3.46Q96.83-1.28 94.62 0L94.62 0L94.62 0Q92.42 1.28 89.54 1.28Z" fill="url(#editing-shiny-gradient2)"></path></g></g><style>text {
  font-size: 64px;
  font-family: Arial Black;
  dominant-baseline: central;
  text-anchor: middle;
}</style></svg>